<?xml version="1.0" encoding="UTF-8" standalone="no"?>
<svg width="347.17444" height="203.42215" version="1.1" id="svg1" xmlns:xlink="http://www.w3.org/1999/xlink" xmlns="http://www.w3.org/2000/svg" xmlns:svg="http://www.w3.org/2000/svg" xmlns:rdf="http://www.w3.org/1999/02/22-rdf-syntax-ns#" xmlns:cc="http://creativecommons.org/ns#" xmlns:dc="http://purl.org/dc/elements/1.1/">
  <defs id="defs1">
    <linearGradient id="linearGradient1">
      <stop style="stop-color:#5786ff;stop-opacity:1;" offset="0" id="stop1" />
      <stop style="stop-color:#00091a;stop-opacity:1;" offset="1" id="stop2" />
    </linearGradient>
    <linearGradient xlink:href="#linearGradient1" id="linearGradient2" x1="17.277023" y1="2.8785384" x2="112.23784" y2="126.0448" gradientUnits="userSpaceOnUse" gradientTransform="translate(109.58722,20.601538)" />
  </defs>
  <title id="title1">Math Formula File Icon</title>
  <desc id="desc1">This is shape (source) for Clarity vector icon theme for gtk</desc>
  <metadata id="metadata1">
    <rdf:RDF>
      <cc:Work rdf:about="">
        <dc:title>Math Formula File Icon</dc:title>
        <dc:description>This is shape (source) for Clarity vector icon theme for gtk</dc:description>
        <dc:creator>
          <cc:Agent>
            <dc:title>Jakub Jankiewicz</dc:title>
          </cc:Agent>
        </dc:creator>
        <dc:rights>
          <cc:Agent>
            <dc:title>Jakub Jankiewicz</dc:title>
          </cc:Agent>
        </dc:rights>
        <dc:date>2010</dc:date>
        <dc:format>image/svg+xml</dc:format>
        <dc:type rdf:resource="http://purl.org/dc/dcmitype/StillImage" />
        <cc:license rdf:resource="http://creativecommons.org/licenses/by-sa/3.0/" />
      </cc:Work>
    </rdf:RDF>
  </metadata>
  <rect style="fill:#ffffff;fill-opacity:1;fill-rule:evenodd;stroke-width:0.999999;-inkscape-stroke:none" id="rect2" width="347.17444" height="203.42215" x="0" y="0" rx="7.6131353" ry="7.6131353" />
  <path d="m 138.68097,31.820288 c -3.1838,0 -5.71875,2.566195 -5.71875,5.75 v 94.062502 c 0,3.1838 2.53495,5.75 5.71875,5.75 h 69.8125 c 3.1838,0 5.71875,-2.5662 5.71875,-5.75 V 60.945288 c -7.54939,-0.315353 -28.73911,3.200862 -29.09375,-7.3125 v -21.8125 z m 50.4375,0 v 21.8125 c 0,1.714123 1.63197,3.3125 4.0625,3.3125 h 21.03125 z m -23.21875,41.71875 h 34.40625 c 0.77541,0 1.40578,0.630845 1.40625,1.40625 v 3.59375 c 0,0.775405 -0.63084,1.40625 -1.40625,1.40625 h -32.75 l -8.21875,46.000002 c -0.11465,0.64392 -0.65923,1.12445 -1.3125,1.15625 -0.65374,0.0318 -1.26015,-0.37013 -1.4375,-1 l -5.78125,-20.5 -2.96875,1.5 c -0.65186,0.32991 -1.43065,0.0911 -1.8125,-0.53125 l -0.34375,-0.5625 c -0.39215,-0.63923 -0.21426,-1.45337 0.40625,-1.875 l 6.0625,-4.156252 c 0.3767,-0.255972 0.88572,-0.285041 1.3125,-0.125 0.42631,0.160042 0.7277,0.497152 0.84375,0.937502 l 3.375,12.78125 6.84375,-38.875002 c 0.11839,-0.670582 0.69365,-1.15625 1.375,-1.15625 z m 16.3125,16.15625 c 1.52882,2.396407 2.59075,5.027379 3.21875,7.90625 1.57655,-2.332297 2.75761,-3.941425 3.5625,-4.875 1.0777,-1.254592 1.98837,-2.09064 2.6875,-2.46875 0.69959,-0.377641 1.42977,-0.5625 2.21875,-0.5625 0.88443,0 1.588,0.231139 2.0625,0.71875 0.47497,0.486675 0.6875,1.140934 0.6875,1.96875 0,0.780552 -0.21299,1.441465 -0.6875,1.9375 -0.47497,0.495566 -1.07324,0.75 -1.78125,0.75 -0.51476,0 -1.11347,-0.109875 -1.78125,-0.3125 -0.66871,-0.202625 -1.14841,-0.3125 -1.40625,-0.3125 -0.67573,0 -1.2951,0.236286 -1.90625,0.71875 -0.83811,0.659351 -1.87098,2.095058 -3.09375,4.25 1.36269,4.816682 2.46326,7.722732 3.28125,8.781252 0.48059,0.62706 0.93959,0.9375 1.4375,0.9375 0.41648,0 0.78911,-0.11586 1.09375,-0.34375 0.46421,-0.36641 1.16334,-1.28202 2.125,-2.75 l 0.90625,0.53125 c -1.41089,2.37909 -2.77916,4.05884 -4.125,5.03125 -1.02576,0.75294 -2.03731,1.125 -3.03125,1.125 -1.0267,0 -1.88069,-0.22657 -2.5625,-0.6875 -0.68135,-0.46141 -1.28418,-1.2074 -1.8125,-2.25 -0.52926,-1.04308 -1.18513,-2.70327 -1.90625,-5 -1.89429,2.40998 -3.3612,4.17359 -4.4375,5.28125 -1.0763,1.10858 -1.97574,1.81604 -2.6875,2.15625 -0.7127,0.33926 -1.47122,0.5 -2.28125,0.5 -0.84092,0 -1.50631,-0.23722 -2,-0.71875 -0.4937,-0.48153 -0.75,-1.10521 -0.75,-1.875 0,-0.81799 0.27809,-1.50153 0.8125,-2.03125 0.53628,-0.52926 1.20437,-0.78125 2.03125,-0.78125 0.43707,0 0.94828,0.14092 1.5,0.40625 0.80956,0.39776 1.39482,0.59375 1.75,0.59375 0.46842,0 0.87751,-0.0847 1.25,-0.28125 0.48433,-0.24474 1.0997,-0.7767 1.84375,-1.59375 0.45205,-0.5054 1.28799,-1.60139 2.5,-3.25 -1.55549,-5.703929 -2.78211,-9.097059 -3.65625,-10.218752 -0.55593,-0.721589 -1.24581,-1.09375 -2.09375,-1.09375 -0.43988,0 -0.98905,0.05928 -1.625,0.1875 l 0.21875,-0.9375 z" style="fill:url(#linearGradient2)" id="path1" />
  <path d="m 62.777244,161.82668 v 6.44 h 10.22 v 2.1 h -10.22 v 6.86 h 13.02 v 2.1 h -17.08 v -19.6 h 17.08 v 2.1 z m 24.499974,10.136 6.16,7.364 h -4.48 l -3.92,-4.676 -3.92,4.676 h -4.48 l 6.16,-7.364 -6.02,-7.196 h 4.48 l 3.78,4.536 3.78,-4.536 h 4.48 z m 12.040011,-5.236 v 10.64 h 3.500001 q 0.952,0 1.736,-0.28 0.812,-0.308 1.372,-0.952 0.588,-0.644 0.896,-1.652 0.336,-1.008 0.336,-2.436 0,-1.428 -0.336,-2.436 -0.308,-1.008 -0.896,-1.652 -0.56,-0.644 -1.372,-0.924 -0.784,-0.308 -1.736,-0.308 z m 3.500001,-1.96 q 1.932,0 3.5,0.504 1.596,0.504 2.716,1.456 1.12,0.952 1.708,2.296 0.616,1.344 0.616,3.024 0,1.68 -0.616,3.024 -0.588,1.344 -1.708,2.296 -1.12,0.952 -2.716,1.456 -1.568,0.504 -3.5,0.504 h -3.500001 v 5.04 h -3.92 v -19.6 z m 22.81998,1.96 h -3.36 q -1.904,0 -2.912,1.036 -1.008,1.008 -1.008,3.024 v 8.54 h -3.92 v -8.54 q 0,-2.856 1.792,-4.424 1.82,-1.596 5.208,-1.596 h 4.2 z m 9.8,11.2 q 1.372,0 2.548,-0.476 1.204,-0.476 2.352,-1.344 l 1.12,1.68 q -0.532,0.476 -1.26,0.868 -0.7,0.392 -1.54,0.672 -0.812,0.252 -1.708,0.392 -0.896,0.168 -1.792,0.168 -1.988,0 -3.64,-0.532 -1.624,-0.504 -2.772,-1.484 -1.148,-1.008 -1.792,-2.464 -0.616,-1.456 -0.616,-3.36 0,-1.876 0.588,-3.332 0.616,-1.484 1.68,-2.464 1.092,-1.008 2.576,-1.512 1.484,-0.532 3.276,-0.532 1.68,0 3.164,0.504 1.484,0.504 2.576,1.484 1.092,0.952 1.736,2.324 0.644,1.372 0.644,3.108 v 1.96 h -11.956 q 0.336,2.324 1.596,3.332 1.288,1.008 3.22,1.008 z m -0.98,-11.9 q -0.812,0 -1.512,0.308 -0.7,0.308 -1.232,0.98 -0.504,0.672 -0.84,1.736 -0.308,1.064 -0.336,2.576 h 7.84 q 0,-1.456 -0.336,-2.52 -0.336,-1.064 -0.896,-1.736 -0.532,-0.7 -1.26,-1.008 -0.7,-0.336 -1.428,-0.336 z m 14.7,1.82 q 0,0.644 0.56,1.176 0.588,0.532 1.96,0.924 l 4.34,1.26 q 2.016,0.588 3.108,1.596 1.092,1.008 1.092,2.604 0,1.008 -0.42,1.848 -0.42,0.812 -1.372,1.4 -0.952,0.588 -2.464,0.896 -1.512,0.336 -3.724,0.336 -1.148,0 -2.268,-0.168 -1.092,-0.168 -2.1,-0.448 -0.98,-0.308 -1.792,-0.672 -0.812,-0.392 -1.4,-0.812 l 1.12,-1.68 q 1.176,0.728 2.744,1.288 1.596,0.532 3.696,0.532 2.1,0 2.94,-0.56 0.84,-0.56 0.84,-1.4 0,-0.644 -0.588,-1.148 -0.588,-0.532 -2.072,-0.952 l -4.34,-1.26 q -1.792,-0.532 -2.94,-1.512 -1.12,-1.008 -1.12,-2.688 0,-0.896 0.392,-1.652 0.42,-0.784 1.288,-1.344 0.868,-0.56 2.212,-0.868 1.344,-0.336 3.248,-0.336 2.324,0 4.2,0.644 1.904,0.616 3.08,1.456 l -1.12,1.68 q -1.148,-0.728 -2.604,-1.26 -1.456,-0.56 -3.556,-0.56 -1.484,0 -2.212,0.476 -0.728,0.476 -0.728,1.204 z m 17.21999,0 q 0,0.644 0.56,1.176 0.588,0.532 1.96,0.924 l 4.34,1.26 q 2.016,0.588 3.108,1.596 1.092,1.008 1.092,2.604 0,1.008 -0.42,1.848 -0.42,0.812 -1.372,1.4 -0.952,0.588 -2.464,0.896 -1.512,0.336 -3.724,0.336 -1.148,0 -2.268,-0.168 -1.092,-0.168 -2.1,-0.448 -0.98,-0.308 -1.792,-0.672 -0.812,-0.392 -1.4,-0.812 l 1.12,-1.68 q 1.176,0.728 2.744,1.288 1.596,0.532 3.696,0.532 2.1,0 2.94,-0.56 0.84,-0.56 0.84,-1.4 0,-0.644 -0.588,-1.148 -0.588,-0.532 -2.072,-0.952 l -4.34,-1.26 q -1.792,-0.532 -2.94,-1.512 -1.12,-1.008 -1.12,-2.688 0,-0.896 0.392,-1.652 0.42,-0.784 1.288,-1.344 0.868,-0.56 2.212,-0.868 1.344,-0.336 3.248,-0.336 2.324,0 4.2,0.644 1.904,0.616 3.08,1.456 l -1.12,1.68 q -1.148,-0.728 -2.604,-1.26 -1.456,-0.56 -3.556,-0.56 -1.484,0 -2.212,0.476 -0.728,0.476 -0.728,1.204 z m 17.91999,11.48 h -3.92 v -14.28 h 3.92 z m 0.14,-18.06 q 0,0.84 -0.588,1.484 -0.56,0.616 -1.512,0.616 -0.952,0 -1.54,-0.616 -0.56,-0.644 -0.56,-1.484 0,-0.84 0.56,-1.456 0.588,-0.644 1.54,-0.644 0.924,0 1.512,0.644 0.588,0.616 0.588,1.456 z m 11.76004,16.8 q 0.896,0 1.68,-0.336 0.784,-0.336 1.372,-1.036 0.588,-0.728 0.924,-1.876 0.364,-1.148 0.364,-2.772 0,-1.624 -0.364,-2.772 -0.336,-1.148 -0.924,-1.848 -0.588,-0.728 -1.372,-1.064 -0.784,-0.336 -1.68,-0.336 -0.896,0 -1.68,0.336 -0.784,0.336 -1.372,1.064 -0.588,0.7 -0.952,1.848 -0.336,1.148 -0.336,2.772 0,1.624 0.336,2.772 0.364,1.148 0.952,1.876 0.588,0.7 1.372,1.036 0.784,0.336 1.68,0.336 z m 0,-13.86 q 1.876,0 3.444,0.532 1.596,0.504 2.716,1.512 1.12,0.98 1.736,2.464 0.644,1.456 0.644,3.332 0,1.904 -0.644,3.36 -0.616,1.456 -1.736,2.464 -1.12,0.98 -2.716,1.484 -1.568,0.532 -3.444,0.532 -1.904,0 -3.472,-0.532 -1.568,-0.504 -2.688,-1.484 -1.12,-1.008 -1.764,-2.464 -0.616,-1.456 -0.616,-3.36 0,-1.876 0.616,-3.332 0.644,-1.484 1.764,-2.464 1.12,-1.008 2.688,-1.512 1.568,-0.532 3.472,-0.532 z m 27.16,15.12 h -3.92 v -8.82 q 0,-2.016 -1.008,-2.884 -1.008,-0.896 -2.912,-0.896 h -3.64 v 12.6 h -3.92 v -14.56 h 7.56 q 4.004,0 5.908,1.456 1.932,1.428 1.932,4.284 z m 7.42,-1.82 q 0,0.84 -0.588,1.484 -0.56,0.616 -1.512,0.616 -0.952,0 -1.54,-0.616 -0.56,-0.644 -0.56,-1.484 0,-0.84 0.56,-1.456 0.588,-0.644 1.54,-0.644 0.924,0 1.512,0.644 0.588,0.616 0.588,1.456 z m 7.28,-10.78 v 10.64 h 3.5 q 0.952,0 1.736,-0.28 0.812,-0.308 1.372,-0.952 0.588,-0.644 0.896,-1.652 0.336,-1.008 0.336,-2.436 0,-1.428 -0.336,-2.436 -0.308,-1.008 -0.896,-1.652 -0.56,-0.644 -1.372,-0.924 -0.784,-0.308 -1.736,-0.308 z m 3.5,-1.96 q 1.932,0 3.5,0.504 1.596,0.504 2.716,1.456 1.12,0.952 1.708,2.296 0.616,1.344 0.616,3.024 0,1.68 -0.616,3.024 -0.588,1.344 -1.708,2.296 -1.12,0.952 -2.716,1.456 -1.568,0.504 -3.5,0.504 h -3.5 v 5.04 h -3.92 v -19.6 z m 27.15999,14.56 h -3.92 v -8.82 q 0,-2.016 -1.008,-2.884 -1.008,-0.896 -2.912,-0.896 h -3.64 v 12.6 h -3.92 v -19.6 h 3.92 v 5.04 h 3.64 q 4.004,0 5.908,1.456 1.932,1.428 1.932,4.284 z m 7.69998,-12.6 v 10.64 h 3.5 q 0.952,0 1.736,-0.28 0.812,-0.308 1.372,-0.952 0.588,-0.644 0.896,-1.652 0.336,-1.008 0.336,-2.436 0,-1.428 -0.336,-2.436 -0.308,-1.008 -0.896,-1.652 -0.56,-0.644 -1.372,-0.924 -0.784,-0.308 -1.736,-0.308 z m 3.5,-1.96 q 1.932,0 3.5,0.504 1.596,0.504 2.716,1.456 1.12,0.952 1.708,2.296 0.616,1.344 0.616,3.024 0,1.68 -0.616,3.024 -0.588,1.344 -1.708,2.296 -1.12,0.952 -2.716,1.456 -1.568,0.504 -3.5,0.504 h -3.5 v 5.04 h -3.92 v -19.6 z" id="text2" style="font-size:28px;line-height:1.25;font-family:'Prosto One';-inkscape-font-specification:'Prosto One';letter-spacing:0px;word-spacing:0px" aria-label="Expression.php" />
</svg>
